<svg id="Layer_1" data-name="Layer 1" xmlns="http://www.w3.org/2000/svg" xmlns:xlink="http://www.w3.org/1999/xlink" viewBox="0 0 32 32"><defs><style>.cls-1{fill:#00a19b;}.cls-2{clip-path:url(#clip-path);}.cls-3{fill:#fff;}.cls-4{fill:#ec2e7b;}</style><clipPath id="clip-path"><path class="cls-1" d="M16.94.61a1,1,0,0,1-1.89,0c-.53-.85-1.21-.77-1.53.17a1,1,0,0,1-1.84.42c-.7-.71-1.35-.48-1.45.51a1,1,0,0,1-1.7.83c-.83-.54-1.42-.17-1.3.82S6.69,4.91,5.75,4.56s-1.42.15-1.08,1.1-.2,1.61-1.18,1.49-1.35.47-.82,1.31a1,1,0,0,1-.82,1.72c-1,.1-1.21.76-.51,1.46a1,1,0,0,1-.42,1.86c-.94.32-1,1-.17,1.54A1,1,0,0,1,.75,17c-.85.53-.77,1.22.17,1.54a1,1,0,0,1,.42,1.86c-.71.7-.48,1.36.51,1.46a1,1,0,0,1,.82,1.72c-.53.84-.16,1.44.82,1.31S5,25.4,4.67,26.34s.15,1.44,1.08,1.1,1.6.19,1.48,1.19.47,1.36,1.3.82a1,1,0,0,1,1.7.83c.1,1,.75,1.22,1.45.51a1,1,0,0,1,1.84.42c.32,1,1,1,1.53.17a1,1,0,0,1,1.89,0c.52.85,1.21.78,1.53-.17a1,1,0,0,1,1.85-.42c.69.71,1.34.48,1.45-.51a1,1,0,0,1,1.7-.83c.84.54,1.42.17,1.3-.82s.54-1.53,1.48-1.19,1.42-.15,1.08-1.1a1,1,0,0,1,1.18-1.49c1,.12,1.35-.47.82-1.31a1,1,0,0,1,.82-1.72c1-.1,1.22-.76.51-1.46a1,1,0,0,1,.42-1.86c.94-.32,1-1,.17-1.54a1,1,0,0,1,0-1.91c.85-.53.77-1.22-.17-1.54a1,1,0,0,1-.42-1.86c.71-.7.48-1.36-.51-1.46a1,1,0,0,1-.82-1.72c.53-.84.17-1.43-.82-1.31a1,1,0,0,1-1.18-1.49c.33-.94-.15-1.44-1.08-1.1s-1.6-.19-1.48-1.19S24.3,2,23.47,2.55a1,1,0,0,1-1.7-.83c-.1-1-.75-1.23-1.45-.51A1,1,0,0,1,18.47.79C18.3.28,18,0,17.73,0s-.54.19-.78.59"/></clipPath></defs><title>Agrafics favicon</title><path class="cls-1" d="M16.94.61a1,1,0,0,1-1.89,0c-.53-.85-1.21-.77-1.53.17a1,1,0,0,1-1.84.42c-.7-.71-1.35-.48-1.45.51a1,1,0,0,1-1.7.83c-.83-.54-1.42-.17-1.3.82S6.69,4.91,5.75,4.56s-1.42.15-1.08,1.1-.2,1.61-1.18,1.49-1.35.47-.82,1.31a1,1,0,0,1-.82,1.72c-1,.1-1.21.76-.51,1.46a1,1,0,0,1-.42,1.86c-.94.32-1,1-.17,1.54A1,1,0,0,1,.75,17c-.85.53-.77,1.22.17,1.54a1,1,0,0,1,.42,1.86c-.71.7-.48,1.36.51,1.46a1,1,0,0,1,.82,1.72c-.53.84-.16,1.44.82,1.31S5,25.4,4.67,26.34s.15,1.44,1.08,1.1,1.6.19,1.48,1.19.47,1.36,1.3.82a1,1,0,0,1,1.7.83c.1,1,.75,1.22,1.45.51a1,1,0,0,1,1.84.42c.32,1,1,1,1.53.17a1,1,0,0,1,1.89,0c.52.85,1.21.78,1.53-.17a1,1,0,0,1,1.85-.42c.69.71,1.34.48,1.45-.51a1,1,0,0,1,1.7-.83c.84.54,1.42.17,1.3-.82s.54-1.53,1.48-1.19,1.42-.15,1.08-1.1a1,1,0,0,1,1.18-1.49c1,.12,1.35-.47.82-1.31a1,1,0,0,1,.82-1.72c1-.1,1.22-.76.51-1.46a1,1,0,0,1,.42-1.86c.94-.32,1-1,.17-1.54a1,1,0,0,1,0-1.91c.85-.53.77-1.22-.17-1.54a1,1,0,0,1-.42-1.86c.71-.7.48-1.36-.51-1.46a1,1,0,0,1-.82-1.72c.53-.84.17-1.43-.82-1.31a1,1,0,0,1-1.18-1.49c.33-.94-.15-1.44-1.08-1.1s-1.6-.19-1.48-1.19S24.3,2,23.47,2.55a1,1,0,0,1-1.7-.83c-.1-1-.75-1.23-1.45-.51A1,1,0,0,1,18.47.79C18.3.28,18,0,17.73,0s-.54.19-.78.59"/><g class="cls-2"><rect class="cls-1" x="-0.09" y="-0.24" width="32.19" height="32.48"/></g><path class="cls-3" d="M15.89,3.8A12.13,12.13,0,0,0,4,13.67H5.36A10.8,10.8,0,1,1,16.9,26.83v-2a8.68,8.68,0,0,0,4.76-2.09A8.93,8.93,0,0,0,23.84,12.2l-1,.89a7.62,7.62,0,0,1-2,8.66A7.45,7.45,0,0,1,10.25,21a7.53,7.53,0,0,1-1.78-4.32h2.2a5.47,5.47,0,0,0,.8,2.39,5.4,5.4,0,0,0,5.24,2.5l-.79-1.27a4.09,4.09,0,0,1-3.34-1.93,4.17,4.17,0,0,1,1.28-5.72,4.09,4.09,0,0,1,5.67,1.29,4.17,4.17,0,0,1,.29,3.88L20.6,19a5.5,5.5,0,0,0,0-5.85,5.39,5.39,0,0,0-7.46-1.7,5.45,5.45,0,0,0-2.48,3.94H8.46A7.56,7.56,0,0,1,11,10.29a7.44,7.44,0,0,1,8.78-.73l1-.89a8.74,8.74,0,0,0-10.65.62,8.94,8.94,0,0,0-.92,12.51,8.74,8.74,0,0,0,6.44,3.06v2A10.83,10.83,0,0,1,5.36,18.32H4A12.09,12.09,0,1,0,15.89,3.8Z"/><path class="cls-4" d="M18.06,16.1a2,2,0,1,1-2-2,2,2,0,0,1,2,2"/></svg>