<?xml version="1.0" standalone="no"?>
<!DOCTYPE svg PUBLIC "-//W3C//DTD SVG 20010904//EN"
 "http://www.w3.org/TR/2001/REC-SVG-20010904/DTD/svg10.dtd">
<svg version="1.0" xmlns="http://www.w3.org/2000/svg"
 width="700.000000pt" height="700.000000pt" viewBox="0 0 700.000000 700.000000"
 preserveAspectRatio="xMidYMid meet">
<metadata>
Created by potrace 1.11, written by Peter Selinger 2001-2013
</metadata>
<g transform="translate(0.000000,700.000000) scale(0.100000,-0.100000)"
fill="#000000" stroke="none">
<path d="M3074 6984 c-49 -26 -61 -42 -118 -159 -59 -119 -91 -154 -158 -173
-79 -22 -143 3 -255 97 -97 81 -158 96 -220 56 -37 -24 -61 -72 -78 -155 -33
-154 -70 -215 -150 -246 -65 -24 -120 -14 -231 41 -146 73 -222 65 -265 -28
-15 -33 -19 -66 -19 -158 0 -104 -3 -120 -26 -168 -52 -103 -138 -128 -300
-86 -97 25 -149 25 -194 -2 -62 -36 -74 -113 -40 -243 25 -94 25 -154 1 -205
-41 -90 -100 -116 -265 -119 -136 -2 -172 -14 -207 -69 -29 -47 -21 -109 29
-209 64 -129 73 -210 30 -272 -43 -62 -90 -88 -203 -112 -125 -26 -177 -58
-194 -120 -17 -62 6 -116 92 -214 105 -120 106 -252 3 -334 -22 -18 -70 -45
-106 -60 -114 -49 -162 -97 -162 -160 0 -55 31 -105 96 -155 133 -101 161
-141 161 -231 0 -57 -4 -71 -32 -111 -18 -26 -64 -70 -103 -99 -78 -58 -104
-89 -117 -140 -20 -76 36 -149 149 -192 126 -49 191 -124 190 -221 0 -62 -22
-112 -79 -177 -102 -115 -122 -194 -67 -260 32 -38 69 -54 176 -75 46 -10 94
-23 108 -30 45 -23 99 -84 105 -118 16 -94 12 -113 -47 -235 -52 -106 -59
-163 -26 -212 36 -54 67 -64 202 -67 131 -2 171 -12 218 -51 67 -57 82 -141
48 -272 -34 -129 -22 -207 39 -243 46 -27 95 -27 192 -2 153 40 243 18 296
-72 25 -43 28 -58 33 -183 6 -146 18 -185 66 -217 48 -31 110 -22 215 30 141
70 215 72 290 10 42 -36 67 -89 88 -192 29 -141 73 -197 156 -195 48 1 88 23
169 93 96 83 188 106 266 66 32 -16 100 -83 100 -97 0 -4 18 -46 40 -93 58
-121 112 -158 194 -130 47 16 74 41 138 128 125 169 271 169 396 0 64 -87 91
-112 138 -128 85 -29 136 8 203 149 71 149 131 198 230 189 57 -5 100 -28 185
-97 86 -71 98 -77 151 -79 82 -3 131 58 159 200 19 99 43 150 85 186 74 62
150 60 288 -8 108 -53 139 -61 186 -46 74 25 96 77 98 237 2 150 27 207 108
249 49 25 123 26 205 3 95 -26 162 -27 203 -3 65 38 78 113 43 245 -34 131
-19 215 49 273 44 37 99 49 217 49 75 0 111 4 140 18 64 28 79 53 79 124 -1
52 -7 73 -42 141 -43 82 -60 134 -57 171 4 64 17 95 55 132 42 42 87 61 192
82 151 30 200 89 172 207 -3 13 -35 59 -71 103 -70 86 -93 131 -96 183 -6 103
37 158 181 230 120 60 163 102 163 161 0 59 -33 106 -122 176 -136 107 -169
193 -115 301 18 34 45 64 88 97 138 105 163 145 143 229 -10 44 -59 84 -158
131 -138 65 -181 117 -180 218 0 64 17 96 98 196 60 74 86 128 79 165 -2 10
-4 23 -4 30 -2 21 -53 74 -86 87 -18 8 -59 19 -92 26 -177 35 -241 92 -247
220 -2 35 18 90 61 174 31 59 37 82 37 134 1 59 -1 66 -31 92 -43 39 -94 51
-198 47 -139 -5 -216 30 -256 118 -24 51 -24 111 1 205 36 138 21 213 -51 248
-47 24 -84 22 -204 -8 -102 -25 -157 -21 -216 16 -65 41 -82 87 -89 250 -5
126 -8 143 -29 173 -51 72 -119 73 -258 4 -135 -66 -210 -68 -284 -6 -42 36
-65 87 -87 190 -29 141 -72 196 -154 196 -48 0 -87 -21 -178 -97 -163 -137
-309 -97 -390 107 -48 123 -114 177 -189 157 -51 -13 -81 -38 -138 -113 -62
-82 -93 -111 -142 -131 -109 -43 -174 -10 -304 154 -65 83 -136 113 -193 84z"/>
</g>
</svg>
